<?xml version="1.0" encoding="utf-8"?>
<!-- Uploaded to: SVG Repo, www.svgrepo.com, Generator: SVG Repo Mixer Tools -->
<svg fill="#000000" width="800px" height="800px" viewBox="-3 0 32 32" version="1.1" xmlns="http://www.w3.org/2000/svg">
<title>truck</title>
<path d="M23.64 6.64h-13c-1.4 0-2.56 1.16-2.56 2.56v0.64h-1.32c-1.040 0-2.040 0.48-2.68 1.32l-2.56 3.32c-0.12 0.16-0.16 0.32-0.16 0.52v5.84h-0.48c-0.44 0-0.84 0.32-0.88 0.76-0.040 0.52 0.36 0.92 0.84 0.92h3.32c0.4 1.64 1.84 2.84 3.6 2.84s3.2-1.2 3.6-2.84h4.84c0.4 1.64 1.84 2.84 3.6 2.84s3.2-1.2 3.6-2.84h2c0.48 0 0.84-0.4 0.84-0.84v-12.48c-0.040-1.44-1.2-2.56-2.6-2.56zM5.44 12.2c0.32-0.4 0.8-0.64 1.32-0.64h1.32v2.56h-4.12l1.48-1.92zM7.76 23.68c-1.080 0-2-0.88-2-2s0.88-2 2-2 2 0.88 2 2-0.92 2-2 2zM19.76 23.68c-1.080 0-2-0.88-2-2s0.88-2 2-2 2 0.88 2 2-0.92 2-2 2zM24.48 20.84h-1.12c-0.4-1.64-1.84-2.84-3.6-2.84s-3.2 1.2-3.6 2.84h-4.8c-0.4-1.64-1.84-2.84-3.6-2.84s-3.2 1.2-3.6 2.84h-1.080v-5.040h5.84c0.48 0 0.84-0.4 0.84-0.84v-5.76c0-0.48 0.36-0.84 0.84-0.84h13c0.48 0 0.84 0.36 0.84 0.84v11.64z" fill="#F1F3F8"></path>
</svg>
