<?xml version="1.0" encoding="iso-8859-1"?>
<!-- Uploaded to: SVG Repo, www.svgrepo.com, Generator: SVG Repo Mixer Tools -->
<svg fill="#000000" height="800px" width="800px" version="1.1" id="Capa_1" xmlns="http://www.w3.org/2000/svg" xmlns:xlink="http://www.w3.org/1999/xlink"
	 viewBox="0 0 489.475 489.475" xml:space="preserve">
<g>
	<g>
		<path d="M487.823,468.675v-346.4c0-8.3-4.2-15.6-11.4-18.7l-223.7-102c-5.2-2.1-11.4-2.1-16.6,0l-223.7,102
			c-7.3,3.1-11.4,10.4-11.4,18.7v346.4c0,11.4,9.4,20.8,20.8,20.8s20.8-9.4,20.8-20.8v-332.9l203.9-92.6l202.8,92.6v332.9
			c0,11.4,9.4,20.8,20.8,20.8S491.023,480.175,487.823,468.675z" fill="#F1F3F8"/>
		<path d="M313.123,285.575c11.4,0,20.8-9.4,20.8-20.8v-134.2c0-11.4-9.4-20.8-20.8-20.8h-134.2c-11.4,0-20.8,9.4-20.8,20.8v134.2
			c0,11.4,9.4,20.8,20.8,20.8H313.123z M199.723,152.475h92.6v92.6h-92.6V152.475z" fill="#F1F3F8"/>
		<path d="M213.223,313.675h-134.2c-11.4,0-20.8,9.4-20.8,20.8v134.2c0,11.4,9.4,20.8,20.8,20.8h134.2c11.4,0,20.8-9.4,20.8-20.8
			v-134.2C234.023,323.075,224.623,313.675,213.223,313.675z M192.423,448.975h-92.6v-92.6h92.6V448.975z" fill="#F1F3F8"/>
		<path d="M412.923,313.675h-134.2c-11.4,0-20.8,9.4-20.8,20.8v134.2c0,11.4,9.4,20.8,20.8,20.8h134.2c11.4,0,20.8-9.4,20.8-20.8
			v-134.2C433.723,323.075,424.423,313.675,412.923,313.675z M392.123,448.975h-92.6v-92.6h92.6V448.975z" fill="#F1F3F8"/>
	</g>
</g>
</svg>
